<svg width="507" height="258" viewBox="0 0 507 258" fill="none" xmlns="http://www.w3.org/2000/svg">
<g clip-path="url(#clip0)">
<path d="M467.123 154.718C467.139 171.876 462.094 188.657 452.622 202.957C443.15 217.257 429.672 228.44 413.876 235.104C398.081 241.769 380.672 243.617 363.831 240.419C346.99 237.22 331.468 229.116 319.209 217.124C306.95 205.131 298.501 189.783 294.921 173.004C291.34 156.224 292.788 138.76 299.082 122.801C305.376 106.841 316.236 93.0969 330.301 83.2903C344.367 73.4837 361.011 68.0515 378.148 67.6745C378.419 67.6686 378.689 67.6627 378.965 67.6568C379.353 67.6509 379.747 67.6509 380.141 67.6509C381.128 67.6509 382.116 67.6686 383.097 67.7039C385.26 67.7745 387.399 67.9235 389.515 68.151C390.737 68.2804 391.942 68.4392 393.147 68.6157C393.282 68.6393 393.423 68.6569 393.558 68.6804C398.53 69.4476 403.425 70.6504 408.187 72.2749C425.376 78.1429 440.301 89.2469 450.869 104.031C461.438 118.815 467.121 136.539 467.123 154.718Z" fill="#EEEEEE"/>
<path d="M207.038 154.487C207.042 171.975 201.783 189.059 191.948 203.513C182.113 217.967 168.158 229.122 151.899 235.523C150.624 236.035 149.325 236.512 148.02 236.953C146.563 237.453 145.089 237.912 143.601 238.33C142.566 238.618 141.522 238.888 140.468 239.141C124.602 242.947 107.989 242.238 92.5046 237.094C91.2881 236.688 90.0832 236.253 88.8902 235.8C87.2857 235.182 85.6989 234.517 84.1415 233.806C84.0239 233.759 83.9122 233.706 83.8006 233.653C83.1894 233.37 82.5958 233.088 81.9904 232.788H81.9845C81.1559 232.388 80.335 231.972 79.5221 231.541C77.6531 230.552 75.8253 229.499 74.0387 228.382C73.1101 227.805 72.1952 227.207 71.2941 226.587C57.1105 217.002 46.0684 203.44 39.5513 187.6C33.0341 171.76 31.3319 154.348 34.6577 137.544C37.9836 120.74 46.1896 105.292 58.2477 93.1363C70.3058 80.9803 85.6796 72.6566 102.443 69.2081C103.977 68.8904 105.526 68.6159 107.092 68.3845C108.073 68.2316 109.066 68.1021 110.06 67.9904C110.771 67.908 111.482 67.8315 112.205 67.7727H112.211C114.144 67.5962 116.096 67.4864 118.064 67.4433C118.335 67.4374 118.605 67.4315 118.881 67.4256C119.034 67.4256 119.187 67.4197 119.34 67.4256H119.346C119.581 67.4197 119.816 67.4197 120.057 67.4197C121.044 67.4197 122.031 67.4374 123.013 67.4727C125.176 67.5433 127.315 67.6923 129.431 67.9198C130.653 68.0492 131.858 68.2081 133.063 68.3845C133.198 68.4081 133.339 68.4257 133.474 68.4492C133.874 68.514 134.279 68.5786 134.679 68.6492C135.525 68.7846 136.366 68.9434 137.206 69.114C137.994 69.2729 138.775 69.4376 139.557 69.614C142.446 70.2738 145.298 71.0848 148.102 72.0437C167.106 78.5469 183.286 91.4156 193.909 108.476C194.209 108.953 194.502 109.435 194.79 109.924C195.014 110.288 195.225 110.653 195.437 111.024C195.513 111.147 195.584 111.271 195.648 111.394C195.696 111.465 195.731 111.536 195.772 111.606C196.16 112.283 196.536 112.971 196.9 113.659C203.578 126.229 207.06 140.251 207.038 154.487Z" fill="#EEEEEE"/>
<path d="M313.358 218.308H200.642C200.247 218.307 199.869 218.15 199.591 217.871C199.312 217.592 199.155 217.214 199.155 216.819V92.6798C199.155 92.2851 199.312 91.9068 199.591 91.6277C199.869 91.3487 200.247 91.1917 200.642 91.1913H313.358C313.752 91.1917 314.13 91.3487 314.409 91.6277C314.688 91.9068 314.845 92.2851 314.845 92.6798V216.819C314.845 217.214 314.688 217.592 314.409 217.871C314.13 218.15 313.752 218.307 313.358 218.308Z" fill="white"/>
<path d="M275.269 154H242.731C242.272 154 241.832 153.837 241.508 153.549C241.183 153.26 241.001 152.869 241 152.462V123.538C241.001 123.131 241.183 122.74 241.508 122.451C241.832 122.163 242.272 122 242.731 122H275.269C275.728 122 276.168 122.163 276.493 122.451C276.817 122.74 276.999 123.131 277 123.538V152.462C276.999 152.869 276.817 153.26 276.493 153.549C276.168 153.837 275.728 154 275.269 154ZM242.731 122.615C242.455 122.616 242.191 122.713 241.997 122.886C241.802 123.059 241.693 123.294 241.692 123.538V152.462C241.693 152.706 241.802 152.941 241.997 153.114C242.191 153.287 242.455 153.384 242.731 153.385H275.269C275.545 153.384 275.809 153.287 276.003 153.114C276.198 152.941 276.307 152.706 276.308 152.462V123.538C276.307 123.294 276.198 123.059 276.003 122.886C275.809 122.713 275.545 122.616 275.269 122.615H242.731Z" fill="#F2F2F2"/>
<path d="M302.894 147H282.106C281.813 147 281.532 146.898 281.324 146.718C281.117 146.538 281 146.293 281 146.038V127.962C281 127.707 281.117 127.462 281.324 127.282C281.532 127.102 281.813 127 282.106 127H302.894C303.187 127 303.468 127.102 303.676 127.282C303.883 127.462 304 127.707 304 127.962V146.038C304 146.293 303.883 146.538 303.676 146.718C303.468 146.898 303.187 147 302.894 147ZM282.106 127.385C281.93 127.385 281.761 127.446 281.637 127.554C281.512 127.662 281.443 127.809 281.442 127.962V146.038C281.443 146.191 281.512 146.338 281.637 146.446C281.761 146.554 281.93 146.615 282.106 146.615H302.894C303.07 146.615 303.239 146.554 303.363 146.446C303.488 146.338 303.558 146.191 303.558 146.038V127.962C303.558 127.809 303.488 127.662 303.363 127.554C303.239 127.446 303.07 127.385 302.894 127.385H282.106Z" fill="#F2F2F2"/>
<path d="M235.894 147H215.106C214.813 147 214.532 146.898 214.324 146.718C214.117 146.538 214 146.293 214 146.038V127.962C214 127.707 214.117 127.462 214.324 127.282C214.532 127.102 214.813 127 215.106 127H235.894C236.187 127 236.468 127.102 236.676 127.282C236.883 127.462 237 127.707 237 127.962V146.038C237 146.293 236.883 146.538 236.676 146.718C236.468 146.898 236.187 147 235.894 147ZM215.106 127.385C214.93 127.385 214.761 127.446 214.637 127.554C214.512 127.662 214.443 127.809 214.442 127.962V146.038C214.443 146.191 214.512 146.338 214.637 146.446C214.761 146.554 214.93 146.615 215.106 146.615H235.894C236.07 146.615 236.239 146.554 236.363 146.446C236.488 146.338 236.558 146.191 236.558 146.038V127.962C236.558 127.809 236.488 127.662 236.363 127.554C236.239 127.446 236.07 127.385 235.894 127.385H215.106Z" fill="#F2F2F2"/>
<path d="M233.995 149H213.005C212.738 149 212.483 148.908 212.295 148.744C212.106 148.58 212 148.358 212 148.126V129.874C212 129.642 212.106 129.42 212.295 129.256C212.483 129.092 212.738 129 213.005 129H233.995C234.262 129 234.517 129.092 234.705 129.256C234.894 129.42 235 129.642 235 129.874V148.126C235 148.358 234.894 148.58 234.705 148.744C234.517 148.908 234.262 149 233.995 149Z" fill="#FFD95F"/>
<path d="M300.995 149H280.005C279.738 149 279.483 148.908 279.295 148.744C279.106 148.58 279 148.358 279 148.126V129.874C279 129.642 279.106 129.42 279.295 129.256C279.483 129.092 279.738 129 280.005 129H300.995C301.262 129 301.517 129.092 301.705 129.256C301.894 129.42 302 129.642 302 129.874V148.126C302 148.358 301.894 148.58 301.705 148.744C301.517 148.908 301.262 149 300.995 149Z" fill="#FFD95F"/>
<path d="M273.427 155H240.573C240.156 155 239.756 154.857 239.461 154.603C239.166 154.349 239 154.005 239 153.646V125.354C239 124.995 239.166 124.651 239.461 124.397C239.756 124.143 240.156 124 240.573 124H273.427C273.844 124 274.244 124.143 274.539 124.397C274.834 124.651 275 124.995 275 125.354V153.646C275 154.005 274.834 154.349 274.539 154.603C274.244 154.857 273.844 155 273.427 155Z" fill="#FFD95F"/>
<path d="M279.603 164.871H213.281C213.105 164.871 212.931 164.837 212.768 164.77C212.606 164.703 212.458 164.604 212.333 164.48C212.209 164.355 212.11 164.207 212.042 164.045C211.975 163.882 211.94 163.708 211.94 163.531C211.94 163.355 211.975 163.181 212.042 163.018C212.11 162.855 212.209 162.708 212.333 162.583C212.458 162.459 212.606 162.36 212.768 162.293C212.931 162.226 213.105 162.191 213.281 162.192H279.603C279.958 162.192 280.298 162.333 280.549 162.584C280.8 162.835 280.941 163.176 280.941 163.531C280.941 163.887 280.8 164.227 280.549 164.479C280.298 164.73 279.958 164.871 279.603 164.871V164.871Z" fill="#CCCCCC"/>
<path d="M300.719 174.1H213.281C212.926 174.1 212.586 173.959 212.335 173.707C212.084 173.456 211.943 173.115 211.943 172.76C211.943 172.405 212.084 172.064 212.335 171.813C212.586 171.562 212.926 171.42 213.281 171.42H300.719C300.895 171.42 301.069 171.454 301.232 171.522C301.394 171.589 301.542 171.687 301.667 171.812C301.791 171.936 301.89 172.084 301.958 172.247C302.025 172.409 302.06 172.584 302.06 172.76C302.06 172.936 302.025 173.111 301.958 173.273C301.89 173.436 301.791 173.584 301.667 173.708C301.542 173.833 301.394 173.931 301.232 173.999C301.069 174.066 300.895 174.1 300.719 174.1Z" fill="#CCCCCC"/>
<path d="M279.603 183.328H213.281C212.926 183.328 212.586 183.187 212.335 182.936C212.084 182.685 211.943 182.344 211.943 181.989C211.943 181.633 212.084 181.293 212.335 181.041C212.586 180.79 212.926 180.649 213.281 180.649H279.603C279.779 180.649 279.953 180.683 280.116 180.75C280.278 180.817 280.426 180.916 280.551 181.04C280.676 181.165 280.774 181.313 280.842 181.475C280.909 181.638 280.944 181.812 280.944 181.989C280.944 182.165 280.909 182.339 280.842 182.502C280.774 182.665 280.676 182.812 280.551 182.937C280.426 183.061 280.278 183.16 280.116 183.227C279.953 183.294 279.779 183.329 279.603 183.328L279.603 183.328Z" fill="#CCCCCC"/>
<path d="M300.719 192.557H213.281C213.105 192.557 212.931 192.523 212.768 192.456C212.606 192.389 212.458 192.29 212.333 192.165C212.209 192.041 212.11 191.893 212.042 191.73C211.975 191.568 211.94 191.393 211.94 191.217C211.94 191.041 211.975 190.867 212.042 190.704C212.11 190.541 212.209 190.393 212.333 190.269C212.458 190.145 212.606 190.046 212.768 189.979C212.931 189.912 213.105 189.877 213.281 189.878H300.719C301.073 189.878 301.414 190.019 301.665 190.27C301.916 190.521 302.057 190.862 302.057 191.217C302.057 191.573 301.916 191.913 301.665 192.164C301.414 192.416 301.073 192.557 300.719 192.557Z" fill="#CCCCCC"/>
<path d="M300.719 201.785H213.281C212.926 201.785 212.586 201.644 212.335 201.393C212.084 201.142 211.943 200.801 211.943 200.446C211.943 200.091 212.084 199.75 212.335 199.499C212.586 199.247 212.926 199.106 213.281 199.106H300.719C301.073 199.106 301.414 199.247 301.665 199.499C301.916 199.75 302.057 200.091 302.057 200.446C302.057 200.801 301.916 201.142 301.665 201.393C301.414 201.644 301.073 201.785 300.719 201.785Z" fill="#CCCCCC"/>
<rect x="212" y="98" width="93" height="22" rx="3" fill="#AC374F"/>
<mask id="mask0" mask-type="alpha" maskUnits="userSpaceOnUse" x="248" y="102" width="24" height="14">
<path d="M248.832 102H271.851V115.058H248.832V102Z" fill="white"/>
</mask>
<g mask="url(#mask0)">
<path d="M271.274 114.159C271.32 114.169 271.352 114.212 271.35 114.261C271.35 114.285 271.344 114.305 271.332 114.324C271.32 114.344 271.3 114.359 271.28 114.366C271.256 114.375 271.23 114.38 271.205 114.38H271.1V114.147H271.205C271.226 114.149 271.248 114.151 271.274 114.159ZM271.19 114.495C271.23 114.495 271.262 114.501 271.282 114.512C271.304 114.524 271.319 114.539 271.327 114.559C271.338 114.588 271.344 114.621 271.345 114.653C271.349 114.715 271.352 114.752 271.357 114.763H271.508C271.5 114.732 271.497 114.7 271.497 114.667C271.497 114.636 271.494 114.605 271.489 114.574C271.485 114.547 271.475 114.524 271.462 114.501C271.449 114.482 271.432 114.466 271.413 114.455C271.389 114.442 271.362 114.432 271.336 114.427C271.362 114.425 271.389 114.419 271.413 114.409C271.441 114.395 271.465 114.372 271.482 114.344C271.499 114.315 271.509 114.281 271.508 114.246C271.509 114.179 271.476 114.115 271.42 114.079C271.39 114.06 271.357 114.047 271.322 114.041C271.281 114.035 271.239 114.033 271.196 114.034H270.943V114.762H271.1V114.494H271.19V114.495ZM271.794 114.127C271.763 114.059 271.721 113.995 271.67 113.941C271.613 113.881 271.545 113.833 271.471 113.799C271.39 113.76 271.3 113.741 271.211 113.743C271.114 113.743 271.02 113.765 270.933 113.808C270.794 113.876 270.685 113.995 270.624 114.141C270.545 114.332 270.558 114.551 270.657 114.732C270.714 114.836 270.793 114.917 270.893 114.975C271.149 115.126 271.471 115.077 271.675 114.857C271.731 114.798 271.774 114.728 271.804 114.648C271.835 114.569 271.85 114.486 271.85 114.402C271.85 114.307 271.832 114.216 271.794 114.127ZM271.413 113.881C271.48 113.909 271.535 113.946 271.584 113.995C271.632 114.044 271.67 114.097 271.698 114.156C271.775 114.324 271.769 114.52 271.681 114.682C271.635 114.77 271.565 114.841 271.481 114.89C271.396 114.938 271.306 114.963 271.213 114.963C271.12 114.963 271.031 114.938 270.945 114.89C270.861 114.841 270.791 114.77 270.745 114.682C270.698 114.597 270.673 114.5 270.674 114.401C270.674 114.317 270.69 114.241 270.721 114.172C270.751 114.104 270.791 114.046 270.837 113.999C270.938 113.898 271.073 113.84 271.213 113.84C271.28 113.84 271.346 113.854 271.413 113.881ZM268.784 111.729L265.053 105.333H266.08V102.001H259.869V105.333H260.897L259.472 107.777L258.047 105.334H259.074V102.001H252.863V105.333H253.891L250.16 111.729H248.828V115.062H255.163V111.729H254.025L255.969 108.396L256.722 109.69H255.999V113.022H262.943V109.69H262.221L262.975 108.398L264.918 111.73H263.781V115.062H270.114V111.729H268.784Z" fill="#FFCC33"/>
</g>
<path d="M199 65C199 64.4477 199.448 64 200 64H314C314.552 64 315 64.4477 315 65V89H199V65Z" fill="#C4C4C4"/>
<circle cx="204.5" cy="68.5" r="1.5" fill="white"/>
<circle cx="208.5" cy="68.5" r="1.5" fill="white"/>
<circle cx="212.5" cy="68.5" r="1.5" fill="white"/>
<rect x="203" y="73" width="106" height="11" rx="2" fill="white"/>
<path d="M225.33 80.36C225.443 80.36 225.53 80.39 225.59 80.45C225.65 80.5033 225.68 80.58 225.68 80.68C225.68 80.78 225.65 80.86 225.59 80.92C225.53 80.9733 225.443 81 225.33 81H221.83C221.717 81 221.623 80.9667 221.55 80.9C221.477 80.8267 221.44 80.74 221.44 80.64C221.44 80.5333 221.48 80.43 221.56 80.33L224.52 76.77H221.78C221.667 76.77 221.577 76.7433 221.51 76.69C221.45 76.63 221.42 76.5533 221.42 76.46C221.42 76.36 221.45 76.28 221.51 76.22C221.577 76.16 221.667 76.13 221.78 76.13H225.17C225.29 76.13 225.387 76.1667 225.46 76.24C225.533 76.3067 225.57 76.39 225.57 76.49C225.57 76.5967 225.53 76.7 225.45 76.8L222.48 80.36H225.33ZM227.179 81.05C227.019 81.05 226.886 81 226.779 80.9C226.673 80.7933 226.619 80.6567 226.619 80.49C226.619 80.3233 226.673 80.1867 226.779 80.08C226.886 79.9733 227.019 79.92 227.179 79.92C227.333 79.92 227.459 79.9733 227.559 80.08C227.666 80.1867 227.719 80.3233 227.719 80.49C227.719 80.6567 227.666 80.7933 227.559 80.9C227.459 81 227.333 81.05 227.179 81.05ZM232.716 76.03C232.842 76.03 232.939 76.0667 233.006 76.14C233.079 76.2133 233.116 76.31 233.116 76.43V80.66C233.116 80.7733 233.079 80.8667 233.006 80.94C232.939 81.0133 232.842 81.05 232.716 81.05C232.596 81.05 232.499 81.0167 232.426 80.95C232.359 80.8767 232.326 80.7833 232.326 80.67V80.17C232.172 80.4633 231.956 80.6867 231.676 80.84C231.402 80.9933 231.092 81.07 230.746 81.07C230.166 81.07 229.729 80.91 229.436 80.59C229.142 80.2633 228.996 79.7833 228.996 79.15V76.43C228.996 76.31 229.032 76.2133 229.106 76.14C229.179 76.0667 229.279 76.03 229.406 76.03C229.532 76.03 229.629 76.0667 229.696 76.14C229.769 76.2133 229.806 76.31 229.806 76.43V79.13C229.806 79.5633 229.892 79.8833 230.066 80.09C230.239 80.29 230.512 80.39 230.886 80.39C231.312 80.39 231.656 80.2533 231.916 79.98C232.176 79.7 232.306 79.3333 232.306 78.88V76.43C232.306 76.31 232.342 76.2133 232.416 76.14C232.489 76.0667 232.589 76.03 232.716 76.03ZM240.041 76.01C241.121 76.01 241.661 76.6533 241.661 77.94V80.65C241.661 80.7767 241.624 80.8767 241.551 80.95C241.478 81.0167 241.381 81.05 241.261 81.05C241.141 81.05 241.041 81.0167 240.961 80.95C240.888 80.8767 240.851 80.7767 240.851 80.65V77.96C240.851 77.5133 240.771 77.19 240.611 76.99C240.451 76.79 240.201 76.69 239.861 76.69C239.454 76.69 239.134 76.8267 238.901 77.1C238.668 77.3733 238.551 77.7433 238.551 78.21V80.65C238.551 80.7767 238.511 80.8767 238.431 80.95C238.358 81.0167 238.261 81.05 238.141 81.05C238.021 81.05 237.924 81.0167 237.851 80.95C237.778 80.8767 237.741 80.7767 237.741 80.65V77.96C237.741 77.5133 237.661 77.19 237.501 76.99C237.341 76.79 237.088 76.69 236.741 76.69C236.341 76.69 236.021 76.8267 235.781 77.1C235.548 77.3733 235.431 77.7433 235.431 78.21V80.65C235.431 80.7767 235.394 80.8767 235.321 80.95C235.248 81.0167 235.151 81.05 235.031 81.05C234.911 81.05 234.811 81.0167 234.731 80.95C234.658 80.8767 234.621 80.7767 234.621 80.65V76.43C234.621 76.31 234.658 76.2133 234.731 76.14C234.811 76.0667 234.911 76.03 235.031 76.03C235.144 76.03 235.238 76.0667 235.311 76.14C235.384 76.2067 235.421 76.3 235.421 76.42V76.9C235.568 76.6133 235.771 76.3933 236.031 76.24C236.291 76.0867 236.591 76.01 236.931 76.01C237.691 76.01 238.188 76.33 238.421 76.97C238.561 76.6767 238.774 76.4433 239.061 76.27C239.348 76.0967 239.674 76.01 240.041 76.01ZM245.587 76.01C246.753 76.01 247.337 76.6533 247.337 77.94V80.65C247.337 80.7767 247.3 80.8767 247.227 80.95C247.16 81.0167 247.063 81.05 246.937 81.05C246.81 81.05 246.71 81.0167 246.637 80.95C246.563 80.8767 246.527 80.7767 246.527 80.65V77.99C246.527 77.5367 246.437 77.2067 246.257 77C246.083 76.7933 245.803 76.69 245.417 76.69C244.97 76.69 244.613 76.8267 244.347 77.1C244.08 77.3733 243.947 77.7433 243.947 78.21V80.65C243.947 80.7767 243.91 80.8767 243.837 80.95C243.77 81.0167 243.673 81.05 243.547 81.05C243.42 81.05 243.32 81.0167 243.247 80.95C243.173 80.8767 243.137 80.7767 243.137 80.65V76.43C243.137 76.31 243.173 76.2133 243.247 76.14C243.32 76.0667 243.42 76.03 243.547 76.03C243.667 76.03 243.76 76.0667 243.827 76.14C243.9 76.2133 243.937 76.3067 243.937 76.42V76.93C244.097 76.63 244.32 76.4033 244.607 76.25C244.893 76.09 245.22 76.01 245.587 76.01ZM249.22 81.05C249.06 81.05 248.927 81 248.82 80.9C248.714 80.7933 248.66 80.6567 248.66 80.49C248.66 80.3233 248.714 80.1867 248.82 80.08C248.927 79.9733 249.06 79.92 249.22 79.92C249.374 79.92 249.5 79.9733 249.6 80.08C249.707 80.1867 249.76 80.3233 249.76 80.49C249.76 80.6567 249.707 80.7933 249.6 80.9C249.5 81 249.374 81.05 249.22 81.05ZM254.709 79.87C254.783 79.87 254.846 79.9 254.899 79.96C254.953 80.02 254.979 80.0967 254.979 80.19C254.979 80.3567 254.863 80.51 254.629 80.65C254.389 80.79 254.136 80.8967 253.869 80.97C253.603 81.0367 253.343 81.07 253.089 81.07C252.336 81.07 251.739 80.8467 251.299 80.4C250.866 79.9533 250.649 79.3367 250.649 78.55C250.649 78.05 250.746 77.61 250.939 77.23C251.133 76.8433 251.403 76.5433 251.749 76.33C252.103 76.1167 252.503 76.01 252.949 76.01C253.583 76.01 254.086 76.2167 254.459 76.63C254.833 77.0433 255.019 77.6033 255.019 78.31C255.019 78.4433 254.993 78.54 254.939 78.6C254.886 78.66 254.799 78.69 254.679 78.69H251.459C251.519 79.8367 252.063 80.41 253.089 80.41C253.349 80.41 253.573 80.3767 253.759 80.31C253.946 80.2367 254.146 80.14 254.359 80.02C254.533 79.92 254.649 79.87 254.709 79.87ZM252.959 76.64C252.533 76.64 252.189 76.7733 251.929 77.04C251.676 77.3067 251.526 77.6833 251.479 78.17H254.309C254.296 77.6767 254.173 77.3 253.939 77.04C253.706 76.7733 253.379 76.64 252.959 76.64ZM260.123 73.9C260.25 73.9 260.35 73.9367 260.423 74.01C260.496 74.0833 260.533 74.1767 260.533 74.29V80.65C260.533 80.77 260.496 80.8667 260.423 80.94C260.35 81.0133 260.25 81.05 260.123 81.05C259.996 81.05 259.896 81.0133 259.823 80.94C259.756 80.8667 259.723 80.77 259.723 80.65V80.11C259.576 80.4167 259.36 80.6533 259.073 80.82C258.793 80.9867 258.463 81.07 258.083 81.07C257.656 81.07 257.28 80.9633 256.953 80.75C256.626 80.5367 256.373 80.24 256.193 79.86C256.013 79.4733 255.923 79.0267 255.923 78.52C255.923 78.02 256.013 77.58 256.193 77.2C256.373 76.82 256.626 76.5267 256.953 76.32C257.28 76.1133 257.656 76.01 258.083 76.01C258.463 76.01 258.793 76.0933 259.073 76.26C259.36 76.4267 259.576 76.6633 259.723 76.97V74.29C259.723 74.17 259.756 74.0767 259.823 74.01C259.896 73.9367 259.996 73.9 260.123 73.9ZM258.243 80.4C258.716 80.4 259.08 80.24 259.333 79.92C259.593 79.5933 259.723 79.1333 259.723 78.54C259.723 77.9467 259.593 77.49 259.333 77.17C259.08 76.85 258.716 76.69 258.243 76.69C257.77 76.69 257.4 76.85 257.133 77.17C256.873 77.49 256.743 77.94 256.743 78.52C256.743 79.1133 256.873 79.5767 257.133 79.91C257.4 80.2367 257.77 80.4 258.243 80.4ZM265.733 76.03C265.86 76.03 265.957 76.0667 266.023 76.14C266.097 76.2133 266.133 76.31 266.133 76.43V80.66C266.133 80.7733 266.097 80.8667 266.023 80.94C265.957 81.0133 265.86 81.05 265.733 81.05C265.613 81.05 265.517 81.0167 265.443 80.95C265.377 80.8767 265.343 80.7833 265.343 80.67V80.17C265.19 80.4633 264.973 80.6867 264.693 80.84C264.42 80.9933 264.11 81.07 263.763 81.07C263.183 81.07 262.747 80.91 262.453 80.59C262.16 80.2633 262.013 79.7833 262.013 79.15V76.43C262.013 76.31 262.05 76.2133 262.123 76.14C262.197 76.0667 262.297 76.03 262.423 76.03C262.55 76.03 262.647 76.0667 262.713 76.14C262.787 76.2133 262.823 76.31 262.823 76.43V79.13C262.823 79.5633 262.91 79.8833 263.083 80.09C263.257 80.29 263.53 80.39 263.903 80.39C264.33 80.39 264.673 80.2533 264.933 79.98C265.193 79.7 265.323 79.3333 265.323 78.88V76.43C265.323 76.31 265.36 76.2133 265.433 76.14C265.507 76.0667 265.607 76.03 265.733 76.03ZM270.458 73.8613L267.797 81H266.986L269.647 73.8613H270.458Z" fill="#322326"/>
<rect x="271.63" y="75" width="26.5" height="6" rx="3" fill="#AC374F"/>
<path d="M313.509 216H200.491C200.096 215.999 199.717 215.812 199.437 215.478C199.158 215.144 199 214.692 199 214.22V65.7799C199 65.308 199.158 64.8556 199.437 64.5219C199.717 64.1882 200.096 64.0005 200.491 64H313.509C313.904 64.0005 314.283 64.1882 314.563 64.5219C314.842 64.8556 315 65.308 315 65.7799V214.22C315 214.692 314.842 215.144 314.563 215.478C314.283 215.812 313.904 215.999 313.509 216ZM200.491 64.712C200.254 64.7123 200.026 64.8249 199.859 65.0251C199.691 65.2253 199.597 65.4968 199.596 65.7799V214.22C199.597 214.503 199.691 214.775 199.859 214.975C200.026 215.175 200.254 215.288 200.491 215.288H313.509C313.746 215.288 313.974 215.175 314.141 214.975C314.309 214.775 314.403 214.503 314.404 214.22V65.7799C314.403 65.4968 314.309 65.2253 314.141 65.0251C313.974 64.8249 313.746 64.7123 313.509 64.712H200.491Z" fill="#322326"/>
<path d="M311.042 154.356C311.233 154.054 311.482 153.793 311.774 153.588C312.065 153.382 312.395 153.236 312.743 153.157C313.091 153.079 313.451 153.07 313.803 153.131C314.155 153.192 314.491 153.322 314.792 153.513L349.233 175.344C349.535 175.535 349.796 175.784 350.001 176.076C350.207 176.368 350.353 176.698 350.431 177.047C350.509 177.395 350.518 177.756 350.457 178.108C350.396 178.46 350.266 178.796 350.075 179.098L311.042 154.356V154.356Z" fill="#AC374F"/>
<path d="M307.784 155.511L308.868 153.798C309.131 153.382 309.549 153.087 310.03 152.979C310.511 152.871 311.014 152.959 311.43 153.222L350.644 178.079C350.888 178.233 351.099 178.435 351.266 178.671C351.432 178.907 351.55 179.174 351.613 179.456C351.677 179.739 351.684 180.03 351.635 180.315C351.585 180.6 351.48 180.872 351.326 181.117L350.425 182.54L307.784 155.511H307.784Z" fill="#2F2E41"/>
<path d="M380.373 76.6138C393.893 76.6138 404.852 65.6432 404.852 52.1104C404.852 38.5776 393.893 27.607 380.373 27.607C366.853 27.607 355.894 38.5776 355.894 52.1104C355.894 65.6432 366.853 76.6138 380.373 76.6138Z" fill="#FFB8B8"/>
<path d="M403.685 238.561C383.824 244.113 362.642 242.456 343.885 233.884L345.765 183.585L345.906 179.673L345.959 178.402L346.024 176.532L346.071 175.337C346.071 175.337 346.147 175.331 346.294 175.326C346.694 175.296 347.617 175.231 348.939 175.155C350.473 175.067 352.536 174.955 354.94 174.855C355.51 174.831 356.097 174.808 356.703 174.778C369.362 174.308 389.133 174.208 391.748 178.026L392.077 180.273L392.606 183.903L393.688 191.321C393.688 191.321 405.982 215.794 403.685 238.561Z" fill="#322326"/>
<path d="M409.899 111.7L405.078 156.281L395.895 176.613L392.492 184.152L343.234 183.554L348.309 149.19C341.145 130.663 358.161 123.193 358.161 123.193L375.812 86.9923C375.812 86.9923 380.514 84.6391 392.79 84.0469C404.203 83.4963 395.206 85.2274 395.206 85.2274C410.133 83.7333 409.899 111.7 409.899 111.7Z" fill="#CCCCCC"/>
<path opacity="0.2" d="M395.087 158.634L385.904 178.966C382.954 173.444 380.709 167.189 380.709 163.496C380.709 153.336 390.859 158.715 390.859 158.715C390.859 158.715 382.65 113.742 382.65 100.295C382.65 91.3634 390.089 131.002 395.087 158.634Z" fill="black"/>
<path d="M408.586 37.1821C406.993 33.292 404.53 29.8197 401.385 27.0329C402.674 26.6001 403.751 25.6921 404.396 24.4934C405.338 22.6266 404.839 20.2854 403.558 18.6145C402.39 17.2028 400.88 16.1148 399.172 15.455C400.423 16.0247 401.792 16.2883 403.166 16.2241C404.831 16.0507 406.495 14.7428 406.396 13.12C406.302 11.574 404.783 10.5286 403.419 9.72185C402.535 9.19848 401.65 8.67513 400.766 8.15181C401.028 7.64338 401.259 7.11914 401.457 6.58209C402.22 4.6297 402.404 2.49822 401.987 0.443669C401.569 -1.61088 400.568 -3.50112 399.104 -5C402 -2.04817 401.261 2.52019 398.399 6.22751C398.306 6.34697 398.207 6.46348 398.111 6.5814C397.544 6.24589 396.977 5.91039 396.41 5.57491C394.996 4.73814 393.526 3.88181 391.883 3.68447C390.24 3.48714 388.369 4.13805 387.698 5.60485C386.98 7.17493 387.797 9.17858 386.861 10.6364C386.043 11.912 384.256 12.1836 382.707 12.1232C381.158 12.0628 379.511 11.8179 378.133 12.5036C376.218 13.4568 375.589 16.0348 376.441 17.9574C376.82 18.7762 377.385 19.4952 378.09 20.057C373.99 20.63 369.952 21.8487 365.984 23.0881C361.305 24.5496 356.538 26.1019 352.628 29.0601C348.717 32.0183 345.754 36.688 346.127 41.5804C346.5 46.4727 351.355 54.1781 356.194 53.396L356.931 51.0873C359.857 49.695 363.145 49.2518 366.335 49.8195C369.525 50.3873 372.458 51.9376 374.726 54.2543C374.782 51.1741 379.465 50.1507 381.799 52.1589C384.133 54.1672 384.583 57.5625 384.764 60.638C384.945 63.7134 385.117 67.062 387.141 69.3829C389.083 71.6104 392.392 72.3011 395.27 71.6375C398.149 70.9739 400.637 69.1461 402.699 67.0283C410.177 59.345 412.586 47.1339 408.586 37.1821Z" fill="#322326"/>
<path d="M330.507 180.611C331.774 181.524 333.226 182.148 334.76 182.438C336.294 182.729 337.873 182.679 339.386 182.293C340.899 181.906 342.309 181.193 343.516 180.202C344.724 179.211 345.7 177.967 346.375 176.558L413.06 177.878L417.473 163.25L340.717 161.87C338.277 160.891 335.563 160.843 333.09 161.733C330.616 162.623 328.555 164.391 327.296 166.701C326.038 169.011 325.669 171.703 326.261 174.267C326.853 176.83 328.364 179.088 330.507 180.611V180.611Z" fill="#FFB8B8"/>
<path d="M395.337 82.8142C395.337 82.8142 379.814 84.0094 379.814 97.4564C379.814 110.903 393.845 158.715 393.845 158.715C393.845 158.715 383.695 153.336 383.695 163.496C383.695 173.656 400.711 203.239 402.502 183.517C402.502 183.517 428.176 196.068 426.683 172.461C425.19 148.854 409.07 98.9505 409.07 98.9505C409.07 98.9505 407.279 81.9177 395.337 82.8142Z" fill="#CCCCCC"/>
<path d="M194.489 135.581C193.539 136.821 192.329 137.838 190.944 138.56C189.56 139.282 188.034 139.692 186.474 139.759C184.914 139.827 183.358 139.551 181.916 138.952C180.474 138.353 179.181 137.445 178.128 136.291L155.179 144.604L146.731 131.877L179.304 120.593C181.357 118.95 183.941 118.118 186.566 118.255C189.191 118.392 191.675 119.488 193.547 121.336C195.418 123.183 196.548 125.654 196.722 128.279C196.895 130.905 196.101 133.503 194.489 135.581Z" fill="#9F616A"/>
<path d="M122.78 136.766L170.058 121.123L178.025 138.531L133.947 152.061L122.78 136.766Z" fill="#CCCCCC"/>
<path d="M140.468 239.141C124.602 242.947 107.989 242.238 92.5046 237.094L93.5625 227.081L94.544 217.728L109.266 194.943L113.986 187.642L133.433 194.72L135.414 207.221L138.57 227.158L140.468 239.141Z" fill="#2F2E41"/>
<path d="M151.899 235.523C150.624 236.035 149.325 236.512 148.02 236.953C146.563 237.453 145.089 237.912 143.601 238.33C142.566 238.618 141.522 238.888 140.468 239.141C124.602 242.947 107.989 242.238 92.5047 237.094C91.2882 236.688 90.0834 236.253 88.8903 235.8C89.0531 239.284 88.947 242.775 88.5729 246.242C86.8752 242.179 85.396 238.027 84.1416 233.806C84.0534 233.523 83.9711 233.241 83.8889 232.958C83.4775 231.535 83.1131 230.176 82.7839 228.899C82.4078 227.423 82.0846 226.052 81.8142 224.799C80.7387 219.881 80.3978 216.839 80.3978 216.839L91.8876 192.955L94.1856 193.219L95.1377 193.325L100.897 193.984L109.266 194.943L122.825 196.49L135.414 207.221L146.692 216.839C146.692 216.839 147.632 220.04 149.107 225.34C149.907 228.187 150.853 231.641 151.899 235.523Z" fill="#322326"/>
<path d="M115.473 76.6445C126.7 76.6445 135.802 67.5338 135.802 56.2952C135.802 45.0566 126.7 35.9459 115.473 35.9459C104.245 35.9459 95.1434 45.0566 95.1434 56.2952C95.1434 67.5338 104.245 76.6445 115.473 76.6445Z" fill="#9F616A"/>
<path d="M129.624 99.1634C129.624 99.1634 124.738 84.0457 113.247 84.0457C110.375 84.0457 105.739 84.284 101.97 86.7457C86.7982 96.6559 77.5681 113.501 76.861 131.622L73.3282 222.149C73.3282 222.149 92.7738 229.227 99.8449 226.572C106.916 223.918 113.987 206.223 113.987 206.223C113.987 206.223 112.219 230.111 119.29 229.227C126.361 228.342 152.878 226.572 153.762 223.033C154.646 219.494 140.231 143.401 140.231 143.401L129.624 99.1634Z" fill="#CCCCCC"/>
<path d="M105.59 62.2612C107.414 62.1523 109.194 62.7692 111.006 63.0099C117.485 63.871 124.226 59.1644 125.657 52.7802C125.771 51.93 126.025 51.1044 126.406 50.3362C127.403 48.7064 129.675 48.3957 131.547 48.7704C133.419 49.1452 135.194 50.0223 137.1 50.1225C140.044 50.2771 142.871 48.4629 144.44 45.9646C146.009 43.4663 146.453 40.3921 146.241 37.4488L144.83 38.9315C144.256 37.7171 144.035 36.3659 144.191 35.0317C143.443 34.8324 142.656 34.8285 141.907 35.0206C141.157 35.2126 140.469 35.5941 139.909 36.1286C138.664 36.2611 139.603 33.818 138.679 32.9737C138.229 32.6972 137.693 32.5968 137.174 32.692C134.527 32.7175 132.385 30.6906 130.299 29.0589C126.684 26.238 122.457 24.308 117.959 23.4249C114.97 22.8412 111.791 22.7475 108.956 23.8618C106.628 24.7769 104.679 26.4436 102.876 28.179C98.4371 32.4512 94.5066 37.4709 92.66 43.351C91.1589 48.1673 91.1164 53.3207 92.5379 58.1611C93.2819 60.6749 95.5243 69.2839 98.8072 69.4843C102.932 69.7363 100.456 62.5679 105.59 62.2612Z" fill="#322326"/>
<path opacity="0.1" d="M114.174 125.955L93.3564 156.517L86.6987 227.506L114.174 125.955Z" fill="black"/>
<path d="M174.641 140.199C174.054 139.78 173.658 139.145 173.539 138.433C173.42 137.722 173.589 136.992 174.007 136.405L197.684 103.188C198.103 102.6 198.737 102.203 199.448 102.084C200.159 101.965 200.888 102.134 201.475 102.553L174.641 140.199L174.641 140.199Z" fill="#AC374F"/>
<path d="M175.613 143.519L174.243 142.541C174.008 142.373 173.808 142.16 173.655 141.915C173.502 141.67 173.399 141.397 173.351 141.112C173.304 140.827 173.313 140.535 173.378 140.253C173.443 139.971 173.562 139.705 173.73 139.47L200.688 101.649C200.974 101.248 201.408 100.977 201.894 100.896C202.38 100.814 202.878 100.929 203.279 101.216L204.927 102.393L175.613 143.519H175.613Z" fill="#2F2E41"/>
<path d="M91.4245 250.662C92.3365 249.394 92.9596 247.941 93.2499 246.405C93.5402 244.87 93.4906 243.289 93.1046 241.775C92.7186 240.26 92.0056 238.849 91.0158 237.64C90.026 236.432 88.7834 235.455 87.3757 234.779L88.6943 210.386L74.0806 205.968L72.7018 240.442C71.7241 242.885 71.6754 245.602 72.5649 248.077C73.4544 250.553 75.2204 252.617 77.5282 253.877C79.836 255.136 82.5253 255.505 85.0865 254.912C87.6476 254.32 89.9027 252.808 91.4244 250.662H91.4245Z" fill="#9F616A"/>
<path d="M91.3466 230.598H70.205L64.3877 165.413L64.4076 165.353L84.1955 107.182C84.8922 105.133 86.0075 103.253 87.4701 101.66C88.9328 100.067 90.7109 98.7957 92.6912 97.9282C94.6715 97.0607 96.8106 96.6154 98.9722 96.6208C101.134 96.6262 103.271 97.0822 105.247 97.9596C107.222 98.837 108.994 100.117 110.449 101.717C111.904 103.318 113.009 105.204 113.696 107.256C114.382 109.307 114.635 111.48 114.436 113.634C114.238 115.789 113.594 117.879 112.544 119.77L89.2604 161.743L91.3466 230.598Z" fill="#CCCCCC"/>
</g>
<defs>
<clipPath id="clip0">
<rect width="507" height="258" fill="white"/>
</clipPath>
</defs>
</svg>
