<svg width="51" height="27" viewBox="0 0 51 27" fill="none" xmlns="http://www.w3.org/2000/svg">
<mask id="mask0" mask-type="alpha" maskUnits="userSpaceOnUse" x="0" y="0" width="51" height="27">
<path d="M0 0H50.0619V26.1475H0V0Z" fill="white"/>
</mask>
<g mask="url(#mask0)">
<path d="M48.8068 24.3461C48.9069 24.3661 48.9781 24.4537 48.9728 24.5513C48.9728 24.5988 48.9596 24.6388 48.9333 24.6764C48.9069 24.7164 48.8648 24.7464 48.82 24.7614C48.7673 24.7789 48.7119 24.789 48.6566 24.789H48.43V24.3236H48.6566C48.704 24.3261 48.7515 24.3311 48.8068 24.3461ZM48.625 25.0191C48.7119 25.0191 48.7805 25.0316 48.8253 25.0542C48.8727 25.0767 48.9043 25.1067 48.9228 25.1467C48.9465 25.2068 48.9596 25.2718 48.9623 25.3369C48.9702 25.4595 48.9781 25.5345 48.9886 25.557H49.3154C49.2996 25.4945 49.2917 25.4294 49.2917 25.3644C49.2917 25.3018 49.2864 25.2393 49.2759 25.1768C49.2653 25.1242 49.2442 25.0767 49.2152 25.0316C49.1889 24.9941 49.152 24.9616 49.1098 24.9391C49.0571 24.9141 48.9992 24.894 48.9412 24.884C48.9992 24.879 49.0571 24.8665 49.1098 24.8465C49.1705 24.819 49.2232 24.7739 49.26 24.7164C49.2969 24.6589 49.318 24.5913 49.3154 24.5213C49.318 24.3861 49.2469 24.2586 49.1257 24.186C49.0598 24.1485 48.9886 24.1234 48.9122 24.1109C48.8226 24.0984 48.7304 24.0934 48.6382 24.0959H48.0874V25.5545H48.43V25.0166H48.625V25.0191ZM49.9373 24.2836C49.8714 24.146 49.7792 24.0184 49.6685 23.9108C49.5446 23.7907 49.3971 23.6931 49.2363 23.6256C49.0598 23.548 48.8648 23.5105 48.6698 23.513C48.459 23.513 48.2561 23.558 48.0663 23.6431C47.7633 23.7807 47.5261 24.0184 47.3944 24.3111C47.2231 24.6939 47.2495 25.1317 47.4655 25.4945C47.5894 25.7022 47.7607 25.8648 47.9794 25.9799C48.5354 26.2826 49.2363 26.185 49.679 25.7447C49.8002 25.6271 49.8951 25.487 49.961 25.3269C50.0269 25.1667 50.0611 25.0016 50.0611 24.834C50.0611 24.6438 50.0216 24.4612 49.9373 24.2836ZM49.1098 23.7907C49.2548 23.8457 49.376 23.9208 49.4814 24.0184C49.5868 24.1159 49.6685 24.2235 49.7291 24.3411C49.8977 24.6764 49.8846 25.0692 49.6922 25.3944C49.5921 25.5696 49.4392 25.7122 49.2574 25.8097C49.073 25.9073 48.878 25.9573 48.675 25.9573C48.4721 25.9573 48.2798 25.9073 48.0927 25.8097C47.9082 25.7122 47.758 25.5696 47.6579 25.3944C47.5551 25.2243 47.4998 25.0291 47.5024 24.8315C47.5024 24.6639 47.5367 24.5112 47.6052 24.3736C47.6711 24.236 47.758 24.1209 47.8582 24.0259C48.0769 23.8232 48.3694 23.7081 48.675 23.7081C48.82 23.7081 48.9649 23.7357 49.1098 23.7907ZM43.3916 19.4799L35.2781 6.6726H37.5127V0H24.0051V6.6726H26.2397L23.1408 11.5663L20.0419 6.6751H22.2764V0H8.76884V6.6726H11.0034L2.88989 19.4799H-0.00610352V26.155H13.7703V19.4799H11.2959L15.5226 12.8073L17.1617 15.3968H15.5885V22.0694H30.6904V15.3968H29.1198L30.7589 12.8098L34.9856 19.4824H32.5112V26.155H46.285V19.4799H43.3916Z" fill="#FFCC33"/>
</g>
<path d="M36.6131 0.85553V5.81932H33.6855L42.8847 20.3379H45.388V25.2992H33.4141V20.3354H36.5815L30.7605 11.1509L27.5272 16.2523H29.7908V21.2136H16.4913V16.2523H18.7576L15.5243 11.1509L9.70329 20.3379H12.8707V25.2992H0.896729V20.3354H3.39745L12.5966 5.81682H9.67167V0.85553H21.3769V5.81932H18.4466L23.1397 13.2275L27.8329 5.81932H24.9079V0.85553H36.6131Z" fill="#FFCC33"/>
<path d="M35.7118 1.71121V4.9637H32.0912L42.3734 21.1936H44.4841V24.4436H34.3126V21.1911H38.173L30.7604 9.48966L25.9329 17.108H28.8895V20.358H17.3925V17.108H20.3491L15.5242 9.48966L8.10896 21.1911H11.9694V24.4411H1.79785V21.1911H3.90858L14.1908 4.9612H10.5728V1.70871H20.4756V4.9612H16.8549L23.1423 14.8838L29.4297 4.9637H25.809V1.71121H35.7118" fill="#FFCC33"/>
</svg>
