<svg width="435" height="261" viewBox="0 0 435 261" fill="none" xmlns="http://www.w3.org/2000/svg">
<path d="M434.123 159.718C434.139 176.876 429.094 193.657 419.622 207.957C410.15 222.257 396.672 233.44 380.876 240.104C365.081 246.769 347.672 248.617 330.831 245.419C313.99 242.22 298.468 234.116 286.209 222.124C273.95 210.131 265.501 194.783 261.921 178.004C258.34 161.224 259.788 143.76 266.082 127.801C272.376 111.841 283.236 98.0969 297.301 88.2903C311.367 78.4837 328.011 73.0515 345.148 72.6745C345.419 72.6686 345.689 72.6627 345.965 72.6568C346.353 72.6509 346.747 72.6509 347.141 72.6509C348.128 72.6509 349.116 72.6686 350.097 72.7039C352.26 72.7745 354.399 72.9235 356.515 73.151C357.737 73.2804 358.942 73.4392 360.147 73.6157C360.282 73.6393 360.423 73.6569 360.558 73.6804C365.53 74.4476 370.425 75.6504 375.187 77.2749C392.376 83.1429 407.301 94.2469 417.869 109.031C428.438 123.815 434.121 141.539 434.123 159.718Z" fill="#EEEEEE"/>
<path d="M174.038 159.487C174.042 176.975 168.783 194.059 158.948 208.513C149.113 222.967 135.158 234.122 118.899 240.523C117.624 241.035 116.325 241.512 115.02 241.953C113.563 242.453 112.089 242.912 110.601 243.33C109.566 243.618 108.522 243.888 107.468 244.141C91.6021 247.947 74.9893 247.238 59.5046 242.094C58.2881 241.688 57.0832 241.253 55.8902 240.8C54.2857 240.182 52.6989 239.517 51.1415 238.806C51.0239 238.759 50.9122 238.706 50.8006 238.653C50.1894 238.37 49.5958 238.088 48.9904 237.788H48.9845C48.1559 237.388 47.335 236.972 46.5221 236.541C44.6531 235.552 42.8253 234.499 41.0387 233.382C40.1101 232.805 39.1952 232.207 38.2941 231.587C24.1105 222.002 13.0684 208.44 6.55126 192.6C0.0341382 176.76 -1.66814 159.348 1.65771 142.544C4.98355 125.74 13.1896 110.292 25.2477 98.1363C37.3058 85.9803 52.6796 77.6566 69.4429 74.2081C70.9768 73.8904 72.5264 73.6159 74.0917 73.3845C75.0732 73.2316 76.0665 73.1021 77.0597 72.9904C77.7708 72.908 78.482 72.8315 79.2048 72.7727H79.2107C81.1443 72.5962 83.0955 72.4864 85.0644 72.4433C85.3347 72.4374 85.605 72.4315 85.8813 72.4256C86.0341 72.4256 86.1869 72.4197 86.3397 72.4256H86.3456C86.5807 72.4197 86.8157 72.4197 87.0567 72.4197C88.0441 72.4197 89.0314 72.4374 90.0129 72.4727C92.1757 72.5433 94.315 72.6923 96.4307 72.9198C97.6532 73.0492 98.858 73.2081 100.063 73.3845C100.198 73.4081 100.339 73.4257 100.474 73.4492C100.874 73.514 101.279 73.5786 101.679 73.6492C102.525 73.7846 103.366 73.9434 104.206 74.114C104.994 74.2729 105.775 74.4376 106.557 74.614C109.446 75.2738 112.298 76.0848 115.102 77.0437C134.106 83.5469 150.286 96.4156 160.909 113.476C161.209 113.953 161.502 114.435 161.79 114.924C162.014 115.288 162.225 115.653 162.437 116.024C162.513 116.147 162.584 116.271 162.648 116.394C162.696 116.465 162.731 116.536 162.772 116.606C163.16 117.283 163.536 117.971 163.9 118.659C170.578 131.229 174.06 145.251 174.038 159.487Z" fill="#EEEEEE"/>
<path d="M280.358 223.308H167.642C167.247 223.307 166.869 223.15 166.591 222.871C166.312 222.592 166.155 222.214 166.155 221.819V97.6798C166.155 97.2851 166.312 96.9068 166.591 96.6277C166.869 96.3487 167.247 96.1917 167.642 96.1913H280.358C280.752 96.1917 281.13 96.3487 281.409 96.6277C281.688 96.9068 281.845 97.2851 281.845 97.6798V221.819C281.845 222.214 281.688 222.592 281.409 222.871C281.13 223.15 280.752 223.307 280.358 223.308Z" fill="white"/>
<path d="M242.269 159H209.731C209.272 159 208.832 158.837 208.508 158.549C208.183 158.26 208.001 157.869 208 157.462V128.538C208.001 128.131 208.183 127.74 208.508 127.451C208.832 127.163 209.272 127 209.731 127H242.269C242.728 127 243.168 127.163 243.493 127.451C243.817 127.74 243.999 128.131 244 128.538V157.462C243.999 157.869 243.817 158.26 243.493 158.549C243.168 158.837 242.728 159 242.269 159ZM209.731 127.615C209.455 127.616 209.191 127.713 208.997 127.886C208.802 128.059 208.693 128.294 208.692 128.538V157.462C208.693 157.706 208.802 157.941 208.997 158.114C209.191 158.287 209.455 158.384 209.731 158.385H242.269C242.545 158.384 242.809 158.287 243.003 158.114C243.198 157.941 243.307 157.706 243.308 157.462V128.538C243.307 128.294 243.198 128.059 243.003 127.886C242.809 127.713 242.545 127.616 242.269 127.615H209.731Z" fill="#F2F2F2"/>
<path d="M269.894 152H249.106C248.813 152 248.532 151.898 248.324 151.718C248.117 151.538 248 151.293 248 151.038V132.962C248 132.707 248.117 132.462 248.324 132.282C248.532 132.102 248.813 132 249.106 132H269.894C270.187 132 270.468 132.102 270.676 132.282C270.883 132.462 271 132.707 271 132.962V151.038C271 151.293 270.883 151.538 270.676 151.718C270.468 151.898 270.187 152 269.894 152ZM249.106 132.385C248.93 132.385 248.761 132.446 248.637 132.554C248.512 132.662 248.443 132.809 248.442 132.962V151.038C248.443 151.191 248.512 151.338 248.637 151.446C248.761 151.554 248.93 151.615 249.106 151.615H269.894C270.07 151.615 270.239 151.554 270.363 151.446C270.488 151.338 270.558 151.191 270.558 151.038V132.962C270.558 132.809 270.488 132.662 270.363 132.554C270.239 132.446 270.07 132.385 269.894 132.385H249.106Z" fill="#F2F2F2"/>
<path d="M202.894 152H182.106C181.813 152 181.532 151.898 181.324 151.718C181.117 151.538 181 151.293 181 151.038V132.962C181 132.707 181.117 132.462 181.324 132.282C181.532 132.102 181.813 132 182.106 132H202.894C203.187 132 203.468 132.102 203.676 132.282C203.883 132.462 204 132.707 204 132.962V151.038C204 151.293 203.883 151.538 203.676 151.718C203.468 151.898 203.187 152 202.894 152ZM182.106 132.385C181.93 132.385 181.761 132.446 181.637 132.554C181.512 132.662 181.443 132.809 181.442 132.962V151.038C181.443 151.191 181.512 151.338 181.637 151.446C181.761 151.554 181.93 151.615 182.106 151.615H202.894C203.07 151.615 203.239 151.554 203.363 151.446C203.488 151.338 203.558 151.191 203.558 151.038V132.962C203.558 132.809 203.488 132.662 203.363 132.554C203.239 132.446 203.07 132.385 202.894 132.385H182.106Z" fill="#F2F2F2"/>
<path d="M200.995 154H180.005C179.738 154 179.483 153.908 179.295 153.744C179.106 153.58 179 153.358 179 153.126V134.874C179 134.642 179.106 134.42 179.295 134.256C179.483 134.092 179.738 134 180.005 134H200.995C201.262 134 201.517 134.092 201.705 134.256C201.894 134.42 202 134.642 202 134.874V153.126C202 153.358 201.894 153.58 201.705 153.744C201.517 153.908 201.262 154 200.995 154Z" fill="#FFD95F"/>
<path d="M267.995 154H247.005C246.738 154 246.483 153.908 246.295 153.744C246.106 153.58 246 153.358 246 153.126V134.874C246 134.642 246.106 134.42 246.295 134.256C246.483 134.092 246.738 134 247.005 134H267.995C268.262 134 268.517 134.092 268.705 134.256C268.894 134.42 269 134.642 269 134.874V153.126C269 153.358 268.894 153.58 268.705 153.744C268.517 153.908 268.262 154 267.995 154Z" fill="#FFD95F"/>
<path d="M240.427 160H207.573C207.156 160 206.756 159.857 206.461 159.603C206.166 159.349 206 159.005 206 158.646V130.354C206 129.995 206.166 129.651 206.461 129.397C206.756 129.143 207.156 129 207.573 129H240.427C240.844 129 241.244 129.143 241.539 129.397C241.834 129.651 242 129.995 242 130.354V158.646C242 159.005 241.834 159.349 241.539 159.603C241.244 159.857 240.844 160 240.427 160Z" fill="#FFD95F"/>
<path d="M246.603 169.871H180.281C180.105 169.871 179.931 169.837 179.768 169.77C179.606 169.703 179.458 169.604 179.333 169.48C179.209 169.355 179.11 169.207 179.042 169.045C178.975 168.882 178.94 168.708 178.94 168.531C178.94 168.355 178.975 168.181 179.042 168.018C179.11 167.855 179.209 167.708 179.333 167.583C179.458 167.459 179.606 167.36 179.768 167.293C179.931 167.226 180.105 167.191 180.281 167.192H246.603C246.958 167.192 247.298 167.333 247.549 167.584C247.8 167.835 247.941 168.176 247.941 168.531C247.941 168.887 247.8 169.227 247.549 169.479C247.298 169.73 246.958 169.871 246.603 169.871V169.871Z" fill="#CCCCCC"/>
<path d="M267.719 179.1H180.281C179.926 179.1 179.586 178.959 179.335 178.707C179.084 178.456 178.943 178.115 178.943 177.76C178.943 177.405 179.084 177.064 179.335 176.813C179.586 176.562 179.926 176.42 180.281 176.42H267.719C267.895 176.42 268.069 176.454 268.232 176.522C268.394 176.589 268.542 176.687 268.667 176.812C268.791 176.936 268.89 177.084 268.958 177.247C269.025 177.409 269.06 177.584 269.06 177.76C269.06 177.936 269.025 178.111 268.958 178.273C268.89 178.436 268.791 178.584 268.667 178.708C268.542 178.833 268.394 178.931 268.232 178.999C268.069 179.066 267.895 179.1 267.719 179.1Z" fill="#CCCCCC"/>
<path d="M246.603 188.328H180.281C179.926 188.328 179.586 188.187 179.335 187.936C179.084 187.685 178.943 187.344 178.943 186.989C178.943 186.633 179.084 186.293 179.335 186.041C179.586 185.79 179.926 185.649 180.281 185.649H246.603C246.779 185.649 246.953 185.683 247.116 185.75C247.278 185.817 247.426 185.916 247.551 186.04C247.676 186.165 247.774 186.313 247.842 186.475C247.909 186.638 247.944 186.812 247.944 186.989C247.944 187.165 247.909 187.339 247.842 187.502C247.774 187.665 247.676 187.812 247.551 187.937C247.426 188.061 247.278 188.16 247.116 188.227C246.953 188.294 246.779 188.329 246.603 188.328L246.603 188.328Z" fill="#CCCCCC"/>
<path d="M267.719 197.557H180.281C180.105 197.557 179.931 197.523 179.768 197.456C179.606 197.389 179.458 197.29 179.333 197.165C179.209 197.041 179.11 196.893 179.042 196.73C178.975 196.568 178.94 196.393 178.94 196.217C178.94 196.041 178.975 195.867 179.042 195.704C179.11 195.541 179.209 195.393 179.333 195.269C179.458 195.145 179.606 195.046 179.768 194.979C179.931 194.912 180.105 194.877 180.281 194.878H267.719C268.073 194.878 268.414 195.019 268.665 195.27C268.916 195.521 269.057 195.862 269.057 196.217C269.057 196.573 268.916 196.913 268.665 197.164C268.414 197.416 268.073 197.557 267.719 197.557Z" fill="#CCCCCC"/>
<path d="M267.719 206.785H180.281C179.926 206.785 179.586 206.644 179.335 206.393C179.084 206.142 178.943 205.801 178.943 205.446C178.943 205.091 179.084 204.75 179.335 204.499C179.586 204.247 179.926 204.106 180.281 204.106H267.719C268.073 204.106 268.414 204.247 268.665 204.499C268.916 204.75 269.057 205.091 269.057 205.446C269.057 205.801 268.916 206.142 268.665 206.393C268.414 206.644 268.073 206.785 267.719 206.785Z" fill="#CCCCCC"/>
<rect x="179" y="103" width="93" height="22" rx="3" fill="#AC374F"/>
<mask id="mask0" mask-type="alpha" maskUnits="userSpaceOnUse" x="215" y="107" width="24" height="14">
<path d="M215.832 107H238.851V120.058H215.832V107Z" fill="white"/>
</mask>
<g mask="url(#mask0)">
<path d="M238.274 119.159C238.32 119.169 238.352 119.212 238.35 119.261C238.35 119.285 238.344 119.305 238.332 119.324C238.32 119.344 238.3 119.359 238.28 119.366C238.256 119.375 238.23 119.38 238.205 119.38H238.1V119.147H238.205C238.226 119.149 238.248 119.151 238.274 119.159ZM238.19 119.495C238.23 119.495 238.262 119.501 238.282 119.512C238.304 119.524 238.319 119.539 238.327 119.559C238.338 119.588 238.344 119.621 238.345 119.653C238.349 119.715 238.352 119.752 238.357 119.763H238.508C238.5 119.732 238.497 119.7 238.497 119.667C238.497 119.636 238.494 119.605 238.489 119.574C238.485 119.547 238.475 119.524 238.462 119.501C238.449 119.482 238.432 119.466 238.413 119.455C238.389 119.442 238.362 119.432 238.336 119.427C238.362 119.425 238.389 119.419 238.413 119.409C238.441 119.395 238.465 119.372 238.482 119.344C238.499 119.315 238.509 119.281 238.508 119.246C238.509 119.179 238.476 119.115 238.42 119.079C238.39 119.06 238.357 119.047 238.322 119.041C238.281 119.035 238.239 119.033 238.196 119.034H237.943V119.762H238.1V119.494H238.19V119.495ZM238.794 119.127C238.763 119.059 238.721 118.995 238.67 118.941C238.613 118.881 238.545 118.833 238.471 118.799C238.39 118.76 238.3 118.741 238.211 118.743C238.114 118.743 238.02 118.765 237.933 118.808C237.794 118.876 237.685 118.995 237.624 119.141C237.545 119.332 237.558 119.551 237.657 119.732C237.714 119.836 237.793 119.917 237.893 119.975C238.149 120.126 238.471 120.077 238.675 119.857C238.731 119.798 238.774 119.728 238.804 119.648C238.835 119.569 238.85 119.486 238.85 119.402C238.85 119.307 238.832 119.216 238.794 119.127ZM238.413 118.881C238.48 118.909 238.535 118.946 238.584 118.995C238.632 119.044 238.67 119.097 238.698 119.156C238.775 119.324 238.769 119.52 238.681 119.682C238.635 119.77 238.565 119.841 238.481 119.89C238.396 119.938 238.306 119.963 238.213 119.963C238.12 119.963 238.031 119.938 237.945 119.89C237.861 119.841 237.791 119.77 237.745 119.682C237.698 119.597 237.673 119.5 237.674 119.401C237.674 119.317 237.69 119.241 237.721 119.172C237.751 119.104 237.791 119.046 237.837 118.999C237.938 118.898 238.073 118.84 238.213 118.84C238.28 118.84 238.346 118.854 238.413 118.881ZM235.784 116.729L232.053 110.333H233.08V107.001H226.869V110.333H227.897L226.472 112.777L225.047 110.334H226.074V107.001H219.863V110.333H220.891L217.16 116.729H215.828V120.062H222.163V116.729H221.025L222.969 113.396L223.722 114.69H222.999V118.022H229.943V114.69H229.221L229.975 113.398L231.918 116.73H230.781V120.062H237.114V116.729H235.784Z" fill="#FFCC33"/>
</g>
<path d="M166 70C166 69.4477 166.448 69 167 69H281C281.552 69 282 69.4477 282 70V94H166V70Z" fill="#C4C4C4"/>
<circle cx="171.5" cy="73.5" r="1.5" fill="white"/>
<circle cx="175.5" cy="73.5" r="1.5" fill="white"/>
<circle cx="179.5" cy="73.5" r="1.5" fill="white"/>
<rect x="170" y="78" width="106" height="11" rx="2" fill="white"/>
<path d="M192.33 85.36C192.443 85.36 192.53 85.39 192.59 85.45C192.65 85.5033 192.68 85.58 192.68 85.68C192.68 85.78 192.65 85.86 192.59 85.92C192.53 85.9733 192.443 86 192.33 86H188.83C188.717 86 188.623 85.9667 188.55 85.9C188.477 85.8267 188.44 85.74 188.44 85.64C188.44 85.5333 188.48 85.43 188.56 85.33L191.52 81.77H188.78C188.667 81.77 188.577 81.7433 188.51 81.69C188.45 81.63 188.42 81.5533 188.42 81.46C188.42 81.36 188.45 81.28 188.51 81.22C188.577 81.16 188.667 81.13 188.78 81.13H192.17C192.29 81.13 192.387 81.1667 192.46 81.24C192.533 81.3067 192.57 81.39 192.57 81.49C192.57 81.5967 192.53 81.7 192.45 81.8L189.48 85.36H192.33ZM194.179 86.05C194.019 86.05 193.886 86 193.779 85.9C193.673 85.7933 193.619 85.6567 193.619 85.49C193.619 85.3233 193.673 85.1867 193.779 85.08C193.886 84.9733 194.019 84.92 194.179 84.92C194.333 84.92 194.459 84.9733 194.559 85.08C194.666 85.1867 194.719 85.3233 194.719 85.49C194.719 85.6567 194.666 85.7933 194.559 85.9C194.459 86 194.333 86.05 194.179 86.05ZM199.716 81.03C199.842 81.03 199.939 81.0667 200.006 81.14C200.079 81.2133 200.116 81.31 200.116 81.43V85.66C200.116 85.7733 200.079 85.8667 200.006 85.94C199.939 86.0133 199.842 86.05 199.716 86.05C199.596 86.05 199.499 86.0167 199.426 85.95C199.359 85.8767 199.326 85.7833 199.326 85.67V85.17C199.172 85.4633 198.956 85.6867 198.676 85.84C198.402 85.9933 198.092 86.07 197.746 86.07C197.166 86.07 196.729 85.91 196.436 85.59C196.142 85.2633 195.996 84.7833 195.996 84.15V81.43C195.996 81.31 196.032 81.2133 196.106 81.14C196.179 81.0667 196.279 81.03 196.406 81.03C196.532 81.03 196.629 81.0667 196.696 81.14C196.769 81.2133 196.806 81.31 196.806 81.43V84.13C196.806 84.5633 196.892 84.8833 197.066 85.09C197.239 85.29 197.512 85.39 197.886 85.39C198.312 85.39 198.656 85.2533 198.916 84.98C199.176 84.7 199.306 84.3333 199.306 83.88V81.43C199.306 81.31 199.342 81.2133 199.416 81.14C199.489 81.0667 199.589 81.03 199.716 81.03ZM207.041 81.01C208.121 81.01 208.661 81.6533 208.661 82.94V85.65C208.661 85.7767 208.624 85.8767 208.551 85.95C208.478 86.0167 208.381 86.05 208.261 86.05C208.141 86.05 208.041 86.0167 207.961 85.95C207.888 85.8767 207.851 85.7767 207.851 85.65V82.96C207.851 82.5133 207.771 82.19 207.611 81.99C207.451 81.79 207.201 81.69 206.861 81.69C206.454 81.69 206.134 81.8267 205.901 82.1C205.668 82.3733 205.551 82.7433 205.551 83.21V85.65C205.551 85.7767 205.511 85.8767 205.431 85.95C205.358 86.0167 205.261 86.05 205.141 86.05C205.021 86.05 204.924 86.0167 204.851 85.95C204.778 85.8767 204.741 85.7767 204.741 85.65V82.96C204.741 82.5133 204.661 82.19 204.501 81.99C204.341 81.79 204.088 81.69 203.741 81.69C203.341 81.69 203.021 81.8267 202.781 82.1C202.548 82.3733 202.431 82.7433 202.431 83.21V85.65C202.431 85.7767 202.394 85.8767 202.321 85.95C202.248 86.0167 202.151 86.05 202.031 86.05C201.911 86.05 201.811 86.0167 201.731 85.95C201.658 85.8767 201.621 85.7767 201.621 85.65V81.43C201.621 81.31 201.658 81.2133 201.731 81.14C201.811 81.0667 201.911 81.03 202.031 81.03C202.144 81.03 202.238 81.0667 202.311 81.14C202.384 81.2067 202.421 81.3 202.421 81.42V81.9C202.568 81.6133 202.771 81.3933 203.031 81.24C203.291 81.0867 203.591 81.01 203.931 81.01C204.691 81.01 205.188 81.33 205.421 81.97C205.561 81.6767 205.774 81.4433 206.061 81.27C206.348 81.0967 206.674 81.01 207.041 81.01ZM212.587 81.01C213.753 81.01 214.337 81.6533 214.337 82.94V85.65C214.337 85.7767 214.3 85.8767 214.227 85.95C214.16 86.0167 214.063 86.05 213.937 86.05C213.81 86.05 213.71 86.0167 213.637 85.95C213.563 85.8767 213.527 85.7767 213.527 85.65V82.99C213.527 82.5367 213.437 82.2067 213.257 82C213.083 81.7933 212.803 81.69 212.417 81.69C211.97 81.69 211.613 81.8267 211.347 82.1C211.08 82.3733 210.947 82.7433 210.947 83.21V85.65C210.947 85.7767 210.91 85.8767 210.837 85.95C210.77 86.0167 210.673 86.05 210.547 86.05C210.42 86.05 210.32 86.0167 210.247 85.95C210.173 85.8767 210.137 85.7767 210.137 85.65V81.43C210.137 81.31 210.173 81.2133 210.247 81.14C210.32 81.0667 210.42 81.03 210.547 81.03C210.667 81.03 210.76 81.0667 210.827 81.14C210.9 81.2133 210.937 81.3067 210.937 81.42V81.93C211.097 81.63 211.32 81.4033 211.607 81.25C211.893 81.09 212.22 81.01 212.587 81.01ZM216.22 86.05C216.06 86.05 215.927 86 215.82 85.9C215.714 85.7933 215.66 85.6567 215.66 85.49C215.66 85.3233 215.714 85.1867 215.82 85.08C215.927 84.9733 216.06 84.92 216.22 84.92C216.374 84.92 216.5 84.9733 216.6 85.08C216.707 85.1867 216.76 85.3233 216.76 85.49C216.76 85.6567 216.707 85.7933 216.6 85.9C216.5 86 216.374 86.05 216.22 86.05ZM221.709 84.87C221.783 84.87 221.846 84.9 221.899 84.96C221.953 85.02 221.979 85.0967 221.979 85.19C221.979 85.3567 221.863 85.51 221.629 85.65C221.389 85.79 221.136 85.8967 220.869 85.97C220.603 86.0367 220.343 86.07 220.089 86.07C219.336 86.07 218.739 85.8467 218.299 85.4C217.866 84.9533 217.649 84.3367 217.649 83.55C217.649 83.05 217.746 82.61 217.939 82.23C218.133 81.8433 218.403 81.5433 218.749 81.33C219.103 81.1167 219.503 81.01 219.949 81.01C220.583 81.01 221.086 81.2167 221.459 81.63C221.833 82.0433 222.019 82.6033 222.019 83.31C222.019 83.4433 221.993 83.54 221.939 83.6C221.886 83.66 221.799 83.69 221.679 83.69H218.459C218.519 84.8367 219.063 85.41 220.089 85.41C220.349 85.41 220.573 85.3767 220.759 85.31C220.946 85.2367 221.146 85.14 221.359 85.02C221.533 84.92 221.649 84.87 221.709 84.87ZM219.959 81.64C219.533 81.64 219.189 81.7733 218.929 82.04C218.676 82.3067 218.526 82.6833 218.479 83.17H221.309C221.296 82.6767 221.173 82.3 220.939 82.04C220.706 81.7733 220.379 81.64 219.959 81.64ZM227.123 78.9C227.25 78.9 227.35 78.9367 227.423 79.01C227.496 79.0833 227.533 79.1767 227.533 79.29V85.65C227.533 85.77 227.496 85.8667 227.423 85.94C227.35 86.0133 227.25 86.05 227.123 86.05C226.996 86.05 226.896 86.0133 226.823 85.94C226.756 85.8667 226.723 85.77 226.723 85.65V85.11C226.576 85.4167 226.36 85.6533 226.073 85.82C225.793 85.9867 225.463 86.07 225.083 86.07C224.656 86.07 224.28 85.9633 223.953 85.75C223.626 85.5367 223.373 85.24 223.193 84.86C223.013 84.4733 222.923 84.0267 222.923 83.52C222.923 83.02 223.013 82.58 223.193 82.2C223.373 81.82 223.626 81.5267 223.953 81.32C224.28 81.1133 224.656 81.01 225.083 81.01C225.463 81.01 225.793 81.0933 226.073 81.26C226.36 81.4267 226.576 81.6633 226.723 81.97V79.29C226.723 79.17 226.756 79.0767 226.823 79.01C226.896 78.9367 226.996 78.9 227.123 78.9ZM225.243 85.4C225.716 85.4 226.08 85.24 226.333 84.92C226.593 84.5933 226.723 84.1333 226.723 83.54C226.723 82.9467 226.593 82.49 226.333 82.17C226.08 81.85 225.716 81.69 225.243 81.69C224.77 81.69 224.4 81.85 224.133 82.17C223.873 82.49 223.743 82.94 223.743 83.52C223.743 84.1133 223.873 84.5767 224.133 84.91C224.4 85.2367 224.77 85.4 225.243 85.4ZM232.733 81.03C232.86 81.03 232.957 81.0667 233.023 81.14C233.097 81.2133 233.133 81.31 233.133 81.43V85.66C233.133 85.7733 233.097 85.8667 233.023 85.94C232.957 86.0133 232.86 86.05 232.733 86.05C232.613 86.05 232.517 86.0167 232.443 85.95C232.377 85.8767 232.343 85.7833 232.343 85.67V85.17C232.19 85.4633 231.973 85.6867 231.693 85.84C231.42 85.9933 231.11 86.07 230.763 86.07C230.183 86.07 229.747 85.91 229.453 85.59C229.16 85.2633 229.013 84.7833 229.013 84.15V81.43C229.013 81.31 229.05 81.2133 229.123 81.14C229.197 81.0667 229.297 81.03 229.423 81.03C229.55 81.03 229.647 81.0667 229.713 81.14C229.787 81.2133 229.823 81.31 229.823 81.43V84.13C229.823 84.5633 229.91 84.8833 230.083 85.09C230.257 85.29 230.53 85.39 230.903 85.39C231.33 85.39 231.673 85.2533 231.933 84.98C232.193 84.7 232.323 84.3333 232.323 83.88V81.43C232.323 81.31 232.36 81.2133 232.433 81.14C232.507 81.0667 232.607 81.03 232.733 81.03ZM237.458 78.8613L234.797 86H233.986L236.647 78.8613H237.458Z" fill="#322326"/>
<rect x="238.63" y="80" width="26.5" height="6" rx="3" fill="#AC374F"/>
<path d="M280.509 221H167.491C167.096 220.999 166.717 220.812 166.437 220.478C166.158 220.144 166 219.692 166 219.22V70.7799C166 70.308 166.158 69.8556 166.437 69.5219C166.717 69.1882 167.096 69.0005 167.491 69H280.509C280.904 69.0005 281.283 69.1882 281.563 69.5219C281.842 69.8556 282 70.308 282 70.7799V219.22C282 219.692 281.842 220.144 281.563 220.478C281.283 220.812 280.904 220.999 280.509 221ZM167.491 69.712C167.254 69.7123 167.026 69.8249 166.859 70.0251C166.691 70.2253 166.597 70.4968 166.596 70.7799V219.22C166.597 219.503 166.691 219.775 166.859 219.975C167.026 220.175 167.254 220.288 167.491 220.288H280.509C280.746 220.288 280.974 220.175 281.141 219.975C281.309 219.775 281.403 219.503 281.404 219.22V70.7799C281.403 70.4968 281.309 70.2253 281.141 70.0251C280.974 69.8249 280.746 69.7123 280.509 69.712H167.491Z" fill="#322326"/>
<path d="M278.042 159.356C278.233 159.054 278.482 158.793 278.774 158.588C279.065 158.382 279.395 158.236 279.743 158.157C280.091 158.079 280.451 158.07 280.803 158.131C281.155 158.192 281.491 158.322 281.792 158.513L316.233 180.344C316.535 180.535 316.796 180.784 317.001 181.076C317.207 181.368 317.353 181.698 317.431 182.047C317.509 182.395 317.518 182.756 317.457 183.108C317.396 183.46 317.266 183.796 317.075 184.098L278.042 159.356V159.356Z" fill="#AC374F"/>
<path d="M274.784 160.511L275.868 158.798C276.131 158.382 276.549 158.087 277.03 157.979C277.511 157.871 278.014 157.959 278.43 158.222L317.644 183.079C317.888 183.233 318.099 183.435 318.266 183.671C318.432 183.907 318.55 184.174 318.613 184.456C318.677 184.739 318.684 185.03 318.635 185.315C318.585 185.6 318.48 185.872 318.326 186.117L317.425 187.54L274.784 160.511H274.784Z" fill="#2F2E41"/>
<path d="M347.373 81.6138C360.893 81.6138 371.852 70.6432 371.852 57.1104C371.852 43.5776 360.893 32.607 347.373 32.607C333.853 32.607 322.894 43.5776 322.894 57.1104C322.894 70.6432 333.853 81.6138 347.373 81.6138Z" fill="#FFB8B8"/>
<path d="M370.685 243.561C350.824 249.113 329.642 247.456 310.885 238.884L312.765 188.585L312.906 184.673L312.959 183.402L313.024 181.532L313.071 180.337C313.071 180.337 313.147 180.331 313.294 180.326C313.694 180.296 314.617 180.231 315.939 180.155C317.473 180.067 319.536 179.955 321.94 179.855C322.51 179.831 323.097 179.808 323.703 179.778C336.362 179.308 356.133 179.208 358.748 183.026L359.077 185.273L359.606 188.903L360.688 196.321C360.688 196.321 372.982 220.794 370.685 243.561Z" fill="#322326"/>
<path d="M376.899 116.7L372.078 161.281L362.895 181.613L359.492 189.152L310.234 188.554L315.309 154.19C308.145 135.663 325.161 128.193 325.161 128.193L342.812 91.9923C342.812 91.9923 347.514 89.6391 359.79 89.0469C371.203 88.4963 362.206 90.2274 362.206 90.2274C377.133 88.7333 376.899 116.7 376.899 116.7Z" fill="#CCCCCC"/>
<path opacity="0.2" d="M362.087 163.634L352.904 183.966C349.954 178.444 347.709 172.189 347.709 168.496C347.709 158.336 357.859 163.715 357.859 163.715C357.859 163.715 349.65 118.742 349.65 105.295C349.65 96.3634 357.089 136.002 362.087 163.634Z" fill="black"/>
<path d="M375.586 42.1821C373.993 38.292 371.53 34.8197 368.385 32.0329C369.674 31.6001 370.751 30.6921 371.396 29.4934C372.338 27.6266 371.839 25.2854 370.558 23.6145C369.39 22.2028 367.88 21.1148 366.172 20.455C367.423 21.0247 368.792 21.2883 370.166 21.2241C371.831 21.0507 373.495 19.7428 373.396 18.12C373.302 16.574 371.783 15.5286 370.419 14.7219C369.535 14.1985 368.65 13.6751 367.766 13.1518C368.028 12.6434 368.259 12.1191 368.457 11.5821C369.22 9.6297 369.404 7.49822 368.987 5.44367C368.569 3.38912 367.568 1.49888 366.104 0C369 2.95183 368.261 7.52019 365.399 11.2275C365.306 11.347 365.207 11.4635 365.111 11.5814C364.544 11.2459 363.977 10.9104 363.41 10.5749C361.996 9.73814 360.526 8.88181 358.883 8.68447C357.24 8.48714 355.369 9.13805 354.698 10.6049C353.98 12.1749 354.797 14.1786 353.861 15.6364C353.043 16.912 351.256 17.1836 349.707 17.1232C348.158 17.0628 346.511 16.8179 345.133 17.5036C343.218 18.4568 342.589 21.0348 343.441 22.9574C343.82 23.7762 344.385 24.4952 345.09 25.057C340.99 25.63 336.952 26.8487 332.984 28.0881C328.305 29.5496 323.538 31.1019 319.628 34.0601C315.717 37.0183 312.754 41.688 313.127 46.5804C313.5 51.4727 318.355 59.1781 323.194 58.396L323.931 56.0873C326.857 54.695 330.145 54.2518 333.335 54.8195C336.525 55.3873 339.458 56.9376 341.726 59.2543C341.782 56.1741 346.465 55.1507 348.799 57.1589C351.133 59.1672 351.583 62.5625 351.764 65.638C351.945 68.7134 352.117 72.062 354.141 74.3829C356.083 76.6104 359.392 77.3011 362.27 76.6375C365.149 75.9739 367.637 74.1461 369.699 72.0283C377.177 64.345 379.586 52.1339 375.586 42.1821Z" fill="#322326"/>
<path d="M297.507 185.611C298.774 186.524 300.226 187.148 301.76 187.438C303.294 187.729 304.873 187.679 306.386 187.293C307.899 186.906 309.309 186.193 310.516 185.202C311.724 184.211 312.7 182.967 313.375 181.558L380.06 182.878L384.473 168.25L307.717 166.87C305.277 165.891 302.563 165.843 300.09 166.733C297.616 167.623 295.555 169.391 294.296 171.701C293.038 174.011 292.669 176.703 293.261 179.267C293.853 181.83 295.364 184.088 297.507 185.611V185.611Z" fill="#FFB8B8"/>
<path d="M362.337 87.8142C362.337 87.8142 346.814 89.0094 346.814 102.456C346.814 115.903 360.845 163.715 360.845 163.715C360.845 163.715 350.695 158.336 350.695 168.496C350.695 178.656 367.711 208.239 369.502 188.517C369.502 188.517 395.176 201.068 393.683 177.461C392.19 153.854 376.07 103.951 376.07 103.951C376.07 103.951 374.279 86.9177 362.337 87.8142Z" fill="#CCCCCC"/>
<path d="M161.489 140.581C160.539 141.821 159.329 142.838 157.944 143.56C156.56 144.282 155.034 144.692 153.474 144.759C151.914 144.827 150.358 144.551 148.916 143.952C147.474 143.353 146.181 142.445 145.128 141.291L122.179 149.604L113.731 136.877L146.304 125.593C148.357 123.95 150.941 123.118 153.566 123.255C156.191 123.392 158.675 124.488 160.547 126.336C162.418 128.183 163.548 130.654 163.722 133.279C163.895 135.905 163.101 138.503 161.489 140.581Z" fill="#9F616A"/>
<path d="M89.7803 141.766L137.058 126.123L145.025 143.531L100.947 157.061L89.7803 141.766Z" fill="#CCCCCC"/>
<path d="M107.468 244.141C91.6021 247.947 74.9893 247.238 59.5046 242.094L60.5625 232.081L61.544 222.728L76.2662 199.943L80.9856 192.642L100.433 199.72L102.414 212.221L105.57 232.158L107.468 244.141Z" fill="#2F2E41"/>
<path d="M118.899 240.523C117.624 241.035 116.325 241.512 115.02 241.953C113.563 242.453 112.089 242.912 110.601 243.33C109.566 243.618 108.522 243.888 107.468 244.141C91.6022 247.947 74.9894 247.238 59.5047 242.094C58.2882 241.688 57.0834 241.253 55.8903 240.8C56.0531 244.284 55.947 247.775 55.5729 251.242C53.8752 247.179 52.396 243.027 51.1416 238.806C51.0534 238.523 50.9711 238.241 50.8889 237.958C50.4775 236.535 50.1131 235.176 49.7839 233.899C49.4078 232.423 49.0846 231.052 48.8142 229.799C47.7387 224.881 47.3978 221.839 47.3978 221.839L58.8876 197.955L61.1856 198.219L62.1377 198.325L67.8973 198.984L76.2664 199.943L89.8249 201.49L102.414 212.221L113.692 221.839C113.692 221.839 114.632 225.04 116.107 230.34C116.907 233.187 117.853 236.641 118.899 240.523Z" fill="#322326"/>
<path d="M82.4728 81.6445C93.7005 81.6445 102.802 72.5338 102.802 61.2952C102.802 50.0566 93.7005 40.9459 82.4728 40.9459C71.2452 40.9459 62.1434 50.0566 62.1434 61.2952C62.1434 72.5338 71.2452 81.6445 82.4728 81.6445Z" fill="#9F616A"/>
<path d="M96.624 104.163C96.624 104.163 91.738 89.0457 80.2475 89.0457C77.3748 89.0457 72.7391 89.284 68.9704 91.7457C53.7982 101.656 44.5681 118.501 43.861 136.622L40.3282 227.149C40.3282 227.149 59.7738 234.227 66.8449 231.572C73.916 228.918 80.987 211.223 80.987 211.223C80.987 211.223 79.2193 235.111 86.2904 234.227C93.3614 233.342 119.878 231.572 120.762 228.033C121.646 224.494 107.231 148.401 107.231 148.401L96.624 104.163Z" fill="#CCCCCC"/>
<path d="M72.5899 67.2612C74.4137 67.1523 76.1945 67.7692 78.0056 68.0099C84.4852 68.871 91.226 64.1644 92.6568 57.7802C92.7714 56.93 93.0246 56.1044 93.4061 55.3362C94.4034 53.7064 96.6745 53.3957 98.5468 53.7704C100.419 54.1452 102.194 55.0223 104.1 55.1225C107.044 55.2771 109.871 53.4629 111.44 50.9646C113.009 48.4663 113.453 45.3921 113.241 42.4488L111.83 43.9315C111.256 42.7171 111.035 41.3659 111.191 40.0317C110.443 39.8324 109.656 39.8285 108.907 40.0206C108.157 40.2126 107.469 40.5941 106.909 41.1286C105.664 41.2611 106.603 38.818 105.679 37.9737C105.229 37.6972 104.693 37.5968 104.174 37.692C101.527 37.7175 99.385 35.6906 97.2988 34.0589C93.6841 31.238 89.4571 29.308 84.9594 28.4249C81.9699 27.8412 78.791 27.7475 75.9559 28.8618C73.6276 29.7769 71.6787 31.4436 69.8757 33.179C65.4371 37.4512 61.5066 42.4709 59.66 48.351C58.1589 53.1673 58.1164 58.3207 59.5379 63.1611C60.2819 65.6749 62.5243 74.2839 65.8072 74.4843C69.9321 74.7363 67.4555 67.5679 72.5899 67.2612Z" fill="#322326"/>
<path opacity="0.1" d="M81.1738 130.955L60.3564 161.517L53.6987 232.506L81.1738 130.955Z" fill="black"/>
<path d="M141.641 145.199C141.054 144.78 140.658 144.145 140.539 143.433C140.42 142.722 140.589 141.992 141.007 141.405L164.684 108.188C165.103 107.6 165.737 107.203 166.448 107.084C167.159 106.965 167.888 107.134 168.475 107.553L141.641 145.199L141.641 145.199Z" fill="#AC374F"/>
<path d="M142.613 148.519L141.243 147.541C141.008 147.373 140.808 147.16 140.655 146.915C140.502 146.67 140.399 146.397 140.351 146.112C140.304 145.827 140.313 145.535 140.378 145.253C140.443 144.971 140.562 144.705 140.73 144.47L167.688 106.649C167.974 106.248 168.408 105.977 168.894 105.896C169.38 105.814 169.878 105.929 170.279 106.216L171.927 107.393L142.613 148.519H142.613Z" fill="#2F2E41"/>
<path d="M58.4245 255.662C59.3365 254.394 59.9596 252.941 60.2499 251.405C60.5402 249.87 60.4906 248.289 60.1046 246.775C59.7186 245.26 59.0056 243.849 58.0158 242.64C57.026 241.432 55.7834 240.455 54.3757 239.779L55.6943 215.386L41.0806 210.968L39.7018 245.442C38.7241 247.885 38.6754 250.602 39.5649 253.077C40.4544 255.553 42.2204 257.617 44.5282 258.877C46.836 260.136 49.5253 260.505 52.0865 259.912C54.6476 259.32 56.9027 257.808 58.4244 255.662H58.4245Z" fill="#9F616A"/>
<path d="M58.3466 235.598H37.205L31.3877 170.413L31.4076 170.353L51.1955 112.182C51.8922 110.133 53.0075 108.253 54.4701 106.66C55.9328 105.067 57.7109 103.796 59.6912 102.928C61.6715 102.061 63.8106 101.615 65.9722 101.621C68.1338 101.626 70.2706 102.082 72.2466 102.96C74.2225 103.837 75.9942 105.117 77.4489 106.717C78.9036 108.318 80.0095 110.204 80.696 112.256C81.3825 114.307 81.6346 116.48 81.4363 118.634C81.238 120.789 80.5937 122.879 79.5443 124.77L56.2604 166.743L58.3466 235.598Z" fill="#CCCCCC"/>
</svg>
